<?xml version="1.0" encoding="iso-8859-1"?>
<!-- Generator: Adobe Illustrator 16.0.0, SVG Export Plug-In . SVG Version: 6.00 Build 0)  -->
<!DOCTYPE svg PUBLIC "-//W3C//DTD SVG 1.1//EN" "http://www.w3.org/Graphics/SVG/1.1/DTD/svg11.dtd">
<svg version="1.1" id="Capa_1" xmlns="http://www.w3.org/2000/svg" xmlns:xlink="http://www.w3.org/1999/xlink" x="0px" y="0px"
	 width="191.769px" height="191.769px" viewBox="0 0 191.769 191.769" style="enable-background:new 0 0 191.769 191.769;"
	 xml:space="preserve">
<g>
	<g>
		<polygon points="71.634,0 115.76,0 71.634,44.121 		"/>
		<polygon points="0,0 45.189,0 45.189,70.565 0,115.754 		"/>
		<polygon points="32.663,191.769 0,191.769 0,153.165 45.189,107.966 71.634,81.524 120.131,33.033 146.577,6.582 153.159,0 
			191.769,0 191.769,32.666 146.577,77.852 120.131,104.303 71.634,152.798 45.189,179.25 		"/>
		<polygon points="120.131,191.769 71.634,191.769 71.634,190.196 120.131,141.713 		"/>
		<polygon points="191.769,191.769 146.577,191.769 146.577,115.256 191.769,70.07 		"/>
	</g>
</g>
<g>
</g>
<g>
</g>
<g>
</g>
<g>
</g>
<g>
</g>
<g>
</g>
<g>
</g>
<g>
</g>
<g>
</g>
<g>
</g>
<g>
</g>
<g>
</g>
<g>
</g>
<g>
</g>
<g>
</g>
</svg>
