<?xml version="1.0" standalone="no"?>
<!DOCTYPE svg PUBLIC "-//W3C//DTD SVG 20010904//EN"
 "http://www.w3.org/TR/2001/REC-SVG-20010904/DTD/svg10.dtd">
<svg version="1.0" xmlns="http://www.w3.org/2000/svg"
 width="1023.000000pt" height="666.000000pt" viewBox="0 0 1023.000000 666.000000"
 preserveAspectRatio="xMidYMid meet">
<metadata>
Created by potrace 1.16, written by Peter Selinger 2001-2019
</metadata>
<g transform="translate(0.000000,666.000000) scale(0.100000,-0.100000)"
fill="#000000" stroke="none">
<path d="M759 6619 c41 -22 184 -115 318 -207 362 -248 541 -342 799 -416 209
-60 339 -78 611 -83 353 -8 576 21 836 108 236 79 381 158 732 399 127 87 264
176 305 199 l75 41 -1875 0 -1875 0 74 -41z"/>
<path d="M5879 6619 c41 -22 184 -115 318 -207 362 -248 541 -342 799 -416
209 -60 339 -78 611 -83 353 -8 576 21 836 108 236 79 381 158 732 399 127 87
264 176 305 199 l75 41 -1875 0 -1875 0 74 -41z"/>
<path d="M0 4972 l0 -379 123 -6 c295 -14 520 -93 801 -284 385 -261 461 -309
585 -372 278 -140 533 -208 872 -232 349 -24 741 28 1019 135 206 80 346 162
750 438 253 173 401 242 623 290 90 20 131 22 347 22 216 0 257 -2 347 -22
222 -48 370 -117 623 -290 320 -219 409 -275 540 -341 277 -140 533 -208 871
-232 349 -24 741 28 1019 135 206 80 346 162 750 438 85 58 198 128 250 156
180 95 377 148 592 159 l118 6 0 379 0 378 -88 0 c-201 0 -480 -49 -689 -121
-222 -77 -393 -171 -708 -390 -208 -145 -311 -209 -410 -254 -201 -92 -378
-127 -645 -128 -212 -1 -347 16 -499 65 -184 59 -286 115 -576 317 -395 275
-620 384 -937 455 -335 75 -781 75 -1116 0 -317 -71 -542 -180 -937 -455 -208
-145 -311 -209 -410 -254 -201 -92 -378 -127 -645 -128 -212 -1 -347 16 -499
65 -184 59 -286 115 -576 317 -315 219 -486 313 -708 390 -212 73 -488 121
-694 121 l-93 0 0 -378z"/>
<path d="M0 2763 l0 -380 113 -6 c301 -18 523 -92 777 -263 58 -38 195 -131
305 -205 366 -247 644 -357 1035 -410 123 -17 536 -17 655 -1 264 37 492 104
700 207 133 65 270 151 520 325 324 225 491 298 773 335 356 47 713 -11 984
-159 66 -37 97 -57 453 -297 366 -247 644 -357 1035 -410 123 -17 536 -17 655
-1 266 37 493 104 702 208 135 67 271 152 518 324 254 176 391 247 570 296
102 27 287 54 376 54 l59 0 0 382 0 381 -130 -6 c-355 -18 -649 -96 -937 -247
-116 -61 -223 -129 -507 -324 -368 -252 -574 -320 -976 -320 -402 0 -608 68
-976 320 -487 334 -658 423 -960 500 -221 56 -336 68 -624 68 -289 0 -406 -13
-625 -69 -305 -78 -473 -165 -959 -499 -368 -252 -574 -320 -976 -320 -402 0
-608 68 -976 320 -284 195 -391 263 -507 324 -290 152 -585 230 -943 247
l-134 6 0 -380z"/>
<path d="M0 553 l0 -380 113 -8 c211 -13 378 -52 536 -126 l84 -39 1829 0
1829 0 61 31 c86 43 245 94 363 115 138 25 470 25 605 0 128 -23 248 -60 349
-107 l84 -39 1829 0 1829 0 61 31 c142 72 345 121 555 135 l103 7 0 380 0 380
-117 -7 c-487 -28 -813 -138 -1223 -415 -102 -68 -240 -161 -306 -206 -204
-137 -378 -212 -589 -251 -153 -29 -510 -26 -655 5 -213 45 -365 112 -564 246
-66 45 -204 138 -306 206 -354 239 -650 353 -1030 401 -135 16 -505 16 -640 0
-379 -47 -677 -163 -1030 -401 -102 -68 -240 -161 -306 -206 -204 -137 -378
-212 -589 -251 -153 -29 -510 -26 -655 5 -213 45 -365 112 -564 246 -66 45
-204 138 -306 206 -413 278 -738 388 -1227 415 l-123 7 0 -380z"/>
</g>
</svg>
