<?xml version="1.0" standalone="no"?>
<!DOCTYPE svg PUBLIC "-//W3C//DTD SVG 20010904//EN"
 "http://www.w3.org/TR/2001/REC-SVG-20010904/DTD/svg10.dtd">
<svg version="1.0" xmlns="http://www.w3.org/2000/svg"
 width="1280.000000pt" height="1279.000000pt" viewBox="0 0 1280.000000 1279.000000"
 preserveAspectRatio="xMidYMid meet">
<metadata>
Created by potrace 1.16, written by Peter Selinger 2001-2019
</metadata>
<g transform="translate(0.000000,1279.000000) scale(0.100000,-0.100000)"
fill="#000000" stroke="none">
<path d="M1355 11990 l800 -800 4245 0 4245 0 800 800 800 800 -5845 0 -5845
0 800 -800z"/>
<path d="M0 6390 l0 -5845 800 800 800 800 0 4245 0 4245 -800 800 -800 800 0
-5845z"/>
<path d="M11997 11432 l-797 -797 0 -4245 0 -4245 800 -800 800 -800 0 5843
c0 3213 -1 5842 -3 5842 -1 0 -361 -359 -800 -798z"/>
<path d="M2400 6390 l0 -4000 670 0 670 0 0 4000 0 4000 -670 0 -670 0 0
-4000z"/>
<path d="M4530 6390 l0 -4000 735 0 735 0 0 4000 0 4000 -735 0 -735 0 0
-4000z"/>
<path d="M6800 6390 l0 -4000 735 0 735 0 0 4000 0 4000 -735 0 -735 0 0
-4000z"/>
<path d="M9060 6390 l0 -4000 670 0 670 0 0 4000 0 4000 -670 0 -670 0 0
-4000z"/>
<path d="M1360 795 l-795 -795 5835 0 5835 0 -795 795 -795 795 -4245 0 -4245
0 -795 -795z"/>
</g>
</svg>
